<svg width="1540" height="845" viewBox="0 0 1540 845" fill="none" xmlns="http://www.w3.org/2000/svg">
<rect width="1540" height="845" fill="url(#paint0_linear_5260_10640)"/>
<rect width="1540" height="845" fill="url(#paint1_linear_5260_10640)"/>
<path d="M704.204 387.99C700.604 387.99 697.424 387.42 694.664 386.28C691.904 385.14 689.594 383.52 687.734 381.42C685.934 379.26 684.554 376.71 683.594 373.77C682.634 370.77 682.154 367.47 682.154 363.87C682.154 360.21 682.634 356.88 683.594 353.88C684.614 350.88 686.054 348.3 687.914 346.14C689.774 343.98 692.024 342.33 694.664 341.19C697.304 339.99 700.274 339.39 703.574 339.39C706.094 339.39 708.434 339.6 710.594 340.02C712.814 340.44 714.524 340.98 715.724 341.64L714.194 346.68C712.994 346.08 711.644 345.6 710.144 345.24C708.644 344.88 706.634 344.7 704.114 344.7C698.954 344.7 695.024 346.38 692.324 349.74C689.684 353.04 688.364 357.75 688.364 363.87C688.364 366.63 688.664 369.18 689.264 371.52C689.864 373.8 690.824 375.78 692.144 377.46C693.524 379.08 695.264 380.37 697.364 381.33C699.524 382.23 702.134 382.68 705.194 382.68C707.714 382.68 709.814 382.41 711.494 381.87C713.234 381.27 714.494 380.76 715.274 380.34L716.534 385.38C715.454 385.98 713.744 386.55 711.404 387.09C709.124 387.69 706.724 387.99 704.204 387.99ZM757.629 340.47V345.42H742.329V387H736.479V345.42H721.269V340.47H757.629ZM806.372 363.78C806.372 367.44 805.832 370.77 804.752 373.77C803.732 376.77 802.262 379.32 800.342 381.42C798.482 383.52 796.262 385.17 793.682 386.37C791.102 387.51 788.252 388.08 785.132 388.08C782.012 388.08 779.162 387.51 776.582 386.37C774.002 385.17 771.752 383.52 769.832 381.42C767.972 379.32 766.502 376.77 765.422 373.77C764.402 370.77 763.892 367.44 763.892 363.78C763.892 360.12 764.402 356.79 765.422 353.79C766.502 350.79 767.972 348.24 769.832 346.14C771.752 343.98 774.002 342.33 776.582 341.19C779.162 339.99 782.012 339.39 785.132 339.39C788.252 339.39 791.102 339.99 793.682 341.19C796.262 342.33 798.482 343.98 800.342 346.14C802.262 348.24 803.732 350.79 804.752 353.79C805.832 356.79 806.372 360.12 806.372 363.78ZM800.162 363.78C800.162 357.96 798.812 353.34 796.112 349.92C793.412 346.44 789.752 344.7 785.132 344.7C780.512 344.7 776.852 346.44 774.152 349.92C771.452 353.34 770.102 357.96 770.102 363.78C770.102 369.6 771.452 374.22 774.152 377.64C776.852 381.06 780.512 382.77 785.132 382.77C789.752 382.77 793.412 381.06 796.112 377.64C798.812 374.22 800.162 369.6 800.162 363.78ZM824.915 378.63C825.455 379.05 826.115 379.5 826.895 379.98C827.735 380.46 828.695 380.91 829.775 381.33C830.855 381.75 832.025 382.11 833.285 382.41C834.545 382.65 835.865 382.77 837.245 382.77C840.125 382.77 842.525 382.29 844.445 381.33C846.425 380.31 848.015 378.96 849.215 377.28C850.415 375.54 851.285 373.53 851.825 371.25C852.365 368.91 852.635 366.45 852.635 363.87C852.635 357.75 851.105 353.07 848.045 349.83C844.985 346.53 840.935 344.88 835.895 344.88C833.015 344.88 830.675 345.03 828.875 345.33C827.135 345.57 825.815 345.84 824.915 346.14V378.63ZM824.915 403.65H819.065V342.09C820.805 341.49 823.025 340.92 825.725 340.38C828.425 339.84 831.845 339.57 835.985 339.57C839.405 339.57 842.495 340.14 845.255 341.28C848.075 342.36 850.475 343.95 852.455 346.05C854.495 348.15 856.055 350.7 857.135 353.7C858.275 356.7 858.845 360.09 858.845 363.87C858.845 367.41 858.365 370.68 857.405 373.68C856.505 376.62 855.155 379.17 853.355 381.33C851.555 383.43 849.335 385.08 846.695 386.28C844.115 387.48 841.145 388.08 837.785 388.08C834.725 388.08 832.055 387.66 829.775 386.82C827.555 385.92 825.935 385.08 824.915 384.3V403.65ZM338.967 454.05H344.277V471.87H338.607V459H302.427V471.87H296.757V454.05H301.527C303.507 450.93 305.067 447.93 306.207 445.05C307.407 442.17 308.307 439.23 308.907 436.23C309.567 433.23 309.987 430.08 310.167 426.78C310.407 423.42 310.527 419.76 310.527 415.8V412.47H338.967V454.05ZM316.017 417.42C316.017 420.66 315.897 423.84 315.657 426.96C315.477 430.08 315.087 433.17 314.487 436.23C313.887 439.29 313.047 442.32 311.967 445.32C310.887 448.26 309.477 451.17 307.737 454.05H333.117V417.42H316.017ZM394.517 435.78C394.517 439.44 393.977 442.77 392.897 445.77C391.877 448.77 390.407 451.32 388.487 453.42C386.627 455.52 384.407 457.17 381.827 458.37C379.247 459.51 376.397 460.08 373.277 460.08C370.157 460.08 367.307 459.51 364.727 458.37C362.147 457.17 359.897 455.52 357.977 453.42C356.117 451.32 354.647 448.77 353.567 445.77C352.547 442.77 352.037 439.44 352.037 435.78C352.037 432.12 352.547 428.79 353.567 425.79C354.647 422.79 356.117 420.24 357.977 418.14C359.897 415.98 362.147 414.33 364.727 413.19C367.307 411.99 370.157 411.39 373.277 411.39C376.397 411.39 379.247 411.99 381.827 413.19C384.407 414.33 386.627 415.98 388.487 418.14C390.407 420.24 391.877 422.79 392.897 425.79C393.977 428.79 394.517 432.12 394.517 435.78ZM388.307 435.78C388.307 429.96 386.957 425.34 384.257 421.92C381.557 418.44 377.897 416.7 373.277 416.7C368.657 416.7 364.997 418.44 362.297 421.92C359.597 425.34 358.247 429.96 358.247 435.78C358.247 441.6 359.597 446.22 362.297 449.64C364.997 453.06 368.657 454.77 373.277 454.77C377.897 454.77 381.557 453.06 384.257 449.64C386.957 446.22 388.307 441.6 388.307 435.78ZM411.71 419.49C412.67 418.41 413.78 417.45 415.04 416.61C416.3 415.77 417.62 415.08 419 414.54C420.38 414 421.73 413.61 423.05 413.37C424.43 413.07 425.69 412.92 426.83 412.92C430.31 412.92 433.31 413.49 435.83 414.63C438.41 415.71 440.51 417.3 442.13 419.4C443.81 421.44 445.04 423.9 445.82 426.78C446.6 429.66 446.99 432.87 446.99 436.41C446.99 439.05 446.66 441.78 446 444.6C445.34 447.42 444.2 449.97 442.58 452.25C441.02 454.53 438.89 456.42 436.19 457.92C433.55 459.36 430.22 460.08 426.2 460.08C421.88 460.08 418.34 459.24 415.58 457.56C412.82 455.82 410.66 453.57 409.1 450.81C407.6 447.99 406.55 444.84 405.95 441.36C405.41 437.82 405.14 434.25 405.14 430.65C405.14 425.73 405.44 421.02 406.04 416.52C406.64 412.02 407.87 408 409.73 404.46C411.65 400.92 414.38 397.98 417.92 395.64C421.52 393.24 426.32 391.68 432.32 390.96C434.12 390.78 435.62 390.6 436.82 390.42C438.02 390.24 439.01 390.09 439.79 389.97C440.63 389.85 441.32 389.73 441.86 389.61C442.4 389.43 442.91 389.28 443.39 389.16L444.11 394.47C443.51 394.71 442.49 394.95 441.05 395.19C439.61 395.43 437.21 395.73 433.85 396.09C430.25 396.51 427.13 397.26 424.49 398.34C421.85 399.36 419.63 400.8 417.83 402.66C416.09 404.52 414.71 406.83 413.69 409.59C412.73 412.35 412.07 415.65 411.71 419.49ZM411.35 426.06C411.29 426.54 411.26 427.32 411.26 428.4C411.26 429.48 411.26 430.47 411.26 431.37C411.26 434.25 411.44 437.1 411.8 439.92C412.22 442.74 412.97 445.26 414.05 447.48C415.19 449.64 416.72 451.41 418.64 452.79C420.62 454.11 423.14 454.77 426.2 454.77C428.84 454.77 431.06 454.29 432.86 453.33C434.72 452.31 436.22 450.96 437.36 449.28C438.56 447.54 439.43 445.56 439.97 443.34C440.51 441.12 440.78 438.78 440.78 436.32C440.78 433.98 440.57 431.73 440.15 429.57C439.73 427.35 438.95 425.43 437.81 423.81C436.73 422.13 435.2 420.78 433.22 419.76C431.24 418.74 428.69 418.23 425.57 418.23C424.13 418.23 422.66 418.47 421.16 418.95C419.72 419.37 418.37 419.97 417.11 420.75C415.85 421.47 414.71 422.31 413.69 423.27C412.67 424.17 411.89 425.1 411.35 426.06ZM474.35 454.77C476.63 454.77 478.61 454.71 480.29 454.59C482.03 454.41 483.5 454.2 484.7 453.96V437.58C484.04 437.28 482.99 436.98 481.55 436.68C480.11 436.32 478.13 436.14 475.61 436.14C474.17 436.14 472.67 436.26 471.11 436.5C469.55 436.68 468.11 437.13 466.79 437.85C465.47 438.51 464.39 439.44 463.55 440.64C462.71 441.84 462.29 443.43 462.29 445.41C462.29 447.15 462.56 448.62 463.1 449.82C463.7 451.02 464.51 451.98 465.53 452.7C466.61 453.42 467.87 453.96 469.31 454.32C470.81 454.62 472.49 454.77 474.35 454.77ZM473.81 411.39C476.87 411.39 479.45 411.84 481.55 412.74C483.71 413.58 485.45 414.78 486.77 416.34C488.09 417.84 489.05 419.64 489.65 421.74C490.25 423.84 490.55 426.12 490.55 428.58V457.92C489.95 458.1 489.08 458.31 487.94 458.55C486.8 458.73 485.48 458.94 483.98 459.18C482.48 459.42 480.8 459.6 478.94 459.72C477.14 459.9 475.28 459.99 473.36 459.99C470.9 459.99 468.62 459.72 466.52 459.18C464.48 458.64 462.68 457.8 461.12 456.66C459.62 455.46 458.42 453.96 457.52 452.16C456.68 450.3 456.26 448.05 456.26 445.41C456.26 442.89 456.74 440.73 457.7 438.93C458.66 437.13 460.01 435.66 461.75 434.52C463.49 433.32 465.56 432.45 467.96 431.91C470.36 431.37 472.97 431.1 475.79 431.1C476.63 431.1 477.5 431.16 478.4 431.28C479.36 431.34 480.26 431.46 481.1 431.64C482 431.76 482.75 431.91 483.35 432.09C484.01 432.21 484.46 432.33 484.7 432.45V429.57C484.7 427.95 484.58 426.39 484.34 424.89C484.1 423.33 483.56 421.95 482.72 420.75C481.94 419.49 480.8 418.5 479.3 417.78C477.86 417 475.94 416.61 473.54 416.61C470.12 416.61 467.57 416.85 465.89 417.33C464.21 417.81 462.98 418.2 462.2 418.5L461.39 413.37C462.41 412.89 463.97 412.44 466.07 412.02C468.23 411.6 470.81 411.39 473.81 411.39ZM520.501 411.48C522.301 411.48 524.311 411.6 526.531 411.84C528.811 412.02 530.941 412.53 532.921 413.37C534.901 414.15 536.551 415.41 537.871 417.15C539.251 418.83 539.941 421.14 539.941 424.08C539.941 426.36 539.281 428.4 537.961 430.2C536.641 431.94 534.841 433.23 532.561 434.07C535.921 434.97 538.351 436.41 539.851 438.39C541.351 440.37 542.101 442.8 542.101 445.68C542.101 448.8 541.471 451.32 540.211 453.24C538.951 455.1 537.271 456.54 535.171 457.56C533.131 458.52 530.791 459.15 528.151 459.45C525.571 459.75 522.931 459.9 520.231 459.9C516.991 459.9 514.141 459.69 511.681 459.27C509.281 458.85 507.211 458.4 505.471 457.92V413.46C506.971 412.98 508.951 412.53 511.411 412.11C513.871 411.69 516.901 411.48 520.501 411.48ZM511.321 432H521.941C525.541 432 528.451 431.4 530.671 430.2C532.891 429 534.001 426.99 534.001 424.17C534.001 422.37 533.611 420.96 532.831 419.94C532.051 418.92 531.031 418.17 529.771 417.69C528.511 417.15 527.071 416.82 525.451 416.7C523.831 416.52 522.211 416.43 520.591 416.43C518.611 416.43 516.721 416.55 514.921 416.79C513.121 416.97 511.921 417.15 511.321 417.33V432ZM511.321 436.86V453.96C511.621 454.08 512.101 454.2 512.761 454.32C513.481 454.38 514.261 454.47 515.101 454.59C516.001 454.65 516.931 454.71 517.891 454.77C518.911 454.83 519.871 454.86 520.771 454.86C522.811 454.86 524.761 454.74 526.621 454.5C528.481 454.26 530.101 453.81 531.481 453.15C532.861 452.43 533.971 451.5 534.811 450.36C535.651 449.16 536.071 447.6 536.071 445.68C536.071 444 535.711 442.59 534.991 441.45C534.331 440.31 533.371 439.41 532.111 438.75C530.911 438.09 529.471 437.61 527.791 437.31C526.171 437.01 524.401 436.86 522.481 436.86H511.321ZM586.282 419.94C584.482 422.1 582.382 424.83 579.982 428.13C577.642 431.43 575.242 434.91 572.782 438.57C570.382 442.23 568.072 445.86 565.852 449.46C563.632 453.06 561.712 456.24 560.092 459H554.602V412.47H560.362V449.73C561.802 447.15 563.572 444.18 565.672 440.82C567.832 437.4 570.112 433.98 572.512 430.56C574.912 427.08 577.312 423.75 579.712 420.57C582.172 417.39 584.452 414.69 586.552 412.47H592.042V459H586.282V419.94ZM629.562 452.52C629.202 451.62 628.662 450.39 627.942 448.83C627.222 447.21 626.412 445.44 625.512 443.52C624.672 441.54 623.742 439.47 622.722 437.31C621.702 435.09 620.682 432.96 619.662 430.92C618.702 428.88 617.772 426.96 616.872 425.16C615.972 423.36 615.192 421.89 614.532 420.75C613.752 427.65 613.182 434.22 612.822 440.46C612.462 446.64 612.162 452.82 611.922 459H606.432C606.672 451.26 607.062 443.46 607.602 435.6C608.202 427.74 608.952 420.03 609.852 412.47H615.882C616.662 413.73 617.652 415.53 618.852 417.87C620.112 420.21 621.462 422.88 622.902 425.88C624.402 428.82 625.932 432.03 627.492 435.51C629.112 438.93 630.732 442.41 632.352 445.95C633.972 442.41 635.562 438.93 637.122 435.51C638.742 432.03 640.272 428.82 641.712 425.88C643.212 422.88 644.562 420.21 645.762 417.87C646.962 415.53 647.982 413.73 648.822 412.47H654.762C655.662 420.03 656.382 427.74 656.922 435.6C657.522 443.46 657.942 451.26 658.182 459H652.602C652.362 452.82 652.062 446.64 651.702 440.46C651.342 434.22 650.772 427.65 649.992 420.75C649.332 421.95 648.552 423.45 647.652 425.25C646.752 426.99 645.792 428.88 644.772 430.92C643.812 432.96 642.822 435.09 641.802 437.31C640.782 439.47 639.822 441.54 638.922 443.52C638.082 445.44 637.302 447.21 636.582 448.83C635.862 450.39 635.322 451.62 634.962 452.52H629.562ZM693.03 459V412.47H698.88V433.98C700.56 432.36 702.42 430.56 704.46 428.58C706.56 426.54 708.6 424.53 710.58 422.55C712.56 420.51 714.39 418.62 716.07 416.88C717.81 415.08 719.19 413.61 720.21 412.47H727.23C725.85 414.03 724.2 415.8 722.28 417.78C720.36 419.7 718.38 421.65 716.34 423.63C714.36 425.61 712.41 427.53 710.49 429.39C708.63 431.25 706.98 432.84 705.54 434.16C707.58 435.48 709.74 437.13 712.02 439.11C714.3 441.03 716.49 443.13 718.59 445.41C720.75 447.63 722.73 449.94 724.53 452.34C726.39 454.68 727.95 456.9 729.21 459H722.28C720.84 456.78 719.13 454.53 717.15 452.25C715.23 449.97 713.19 447.81 711.03 445.77C708.93 443.67 706.8 441.78 704.64 440.1C702.54 438.42 700.62 437.07 698.88 436.05V459H693.03ZM753.227 454.77C755.507 454.77 757.487 454.71 759.167 454.59C760.907 454.41 762.377 454.2 763.577 453.96V437.58C762.917 437.28 761.867 436.98 760.427 436.68C758.987 436.32 757.007 436.14 754.487 436.14C753.047 436.14 751.547 436.26 749.987 436.5C748.427 436.68 746.987 437.13 745.667 437.85C744.347 438.51 743.267 439.44 742.427 440.64C741.587 441.84 741.167 443.43 741.167 445.41C741.167 447.15 741.437 448.62 741.977 449.82C742.577 451.02 743.387 451.98 744.407 452.7C745.487 453.42 746.747 453.96 748.187 454.32C749.687 454.62 751.367 454.77 753.227 454.77ZM752.687 411.39C755.747 411.39 758.327 411.84 760.427 412.74C762.587 413.58 764.327 414.78 765.647 416.34C766.967 417.84 767.927 419.64 768.527 421.74C769.127 423.84 769.427 426.12 769.427 428.58V457.92C768.827 458.1 767.957 458.31 766.817 458.55C765.677 458.73 764.357 458.94 762.857 459.18C761.357 459.42 759.677 459.6 757.817 459.72C756.017 459.9 754.157 459.99 752.237 459.99C749.777 459.99 747.497 459.72 745.397 459.18C743.357 458.64 741.557 457.8 739.997 456.66C738.497 455.46 737.297 453.96 736.397 452.16C735.557 450.3 735.137 448.05 735.137 445.41C735.137 442.89 735.617 440.73 736.577 438.93C737.537 437.13 738.887 435.66 740.627 434.52C742.367 433.32 744.437 432.45 746.837 431.91C749.237 431.37 751.847 431.1 754.667 431.1C755.507 431.1 756.377 431.16 757.277 431.28C758.237 431.34 759.137 431.46 759.977 431.64C760.877 431.76 761.627 431.91 762.227 432.09C762.887 432.21 763.337 432.33 763.577 432.45V429.57C763.577 427.95 763.457 426.39 763.217 424.89C762.977 423.33 762.437 421.95 761.597 420.75C760.817 419.49 759.677 418.5 758.177 417.78C756.737 417 754.817 416.61 752.417 416.61C748.997 416.61 746.447 416.85 744.767 417.33C743.087 417.81 741.857 418.2 741.077 418.5L740.267 413.37C741.287 412.89 742.847 412.44 744.947 412.02C747.107 411.6 749.687 411.39 752.687 411.39ZM784.348 459V412.47H790.198V433.98C791.878 432.36 793.738 430.56 795.778 428.58C797.878 426.54 799.918 424.53 801.898 422.55C803.878 420.51 805.708 418.62 807.388 416.88C809.128 415.08 810.508 413.61 811.528 412.47H818.548C817.168 414.03 815.518 415.8 813.598 417.78C811.678 419.7 809.698 421.65 807.658 423.63C805.678 425.61 803.728 427.53 801.808 429.39C799.948 431.25 798.298 432.84 796.858 434.16C798.898 435.48 801.058 437.13 803.338 439.11C805.618 441.03 807.808 443.13 809.908 445.41C812.068 447.63 814.048 449.94 815.848 452.34C817.708 454.68 819.268 456.9 820.528 459H813.598C812.158 456.78 810.448 454.53 808.468 452.25C806.548 449.97 804.508 447.81 802.348 445.77C800.248 443.67 798.118 441.78 795.958 440.1C793.858 438.42 791.938 437.07 790.198 436.05V459H784.348ZM887.344 459H881.494V437.31H856.204V459H850.354V412.47H856.204V432.36H881.494V412.47H887.344V459ZM917.495 454.77C919.775 454.77 921.755 454.71 923.435 454.59C925.175 454.41 926.645 454.2 927.845 453.96V437.58C927.185 437.28 926.135 436.98 924.695 436.68C923.255 436.32 921.275 436.14 918.755 436.14C917.315 436.14 915.815 436.26 914.255 436.5C912.695 436.68 911.255 437.13 909.935 437.85C908.615 438.51 907.535 439.44 906.695 440.64C905.855 441.84 905.435 443.43 905.435 445.41C905.435 447.15 905.705 448.62 906.245 449.82C906.845 451.02 907.655 451.98 908.675 452.7C909.755 453.42 911.015 453.96 912.455 454.32C913.955 454.62 915.635 454.77 917.495 454.77ZM916.955 411.39C920.015 411.39 922.595 411.84 924.695 412.74C926.855 413.58 928.595 414.78 929.915 416.34C931.235 417.84 932.195 419.64 932.795 421.74C933.395 423.84 933.695 426.12 933.695 428.58V457.92C933.095 458.1 932.225 458.31 931.085 458.55C929.945 458.73 928.625 458.94 927.125 459.18C925.625 459.42 923.945 459.6 922.085 459.72C920.285 459.9 918.425 459.99 916.505 459.99C914.045 459.99 911.765 459.72 909.665 459.18C907.625 458.64 905.825 457.8 904.265 456.66C902.765 455.46 901.565 453.96 900.665 452.16C899.825 450.3 899.405 448.05 899.405 445.41C899.405 442.89 899.885 440.73 900.845 438.93C901.805 437.13 903.155 435.66 904.895 434.52C906.635 433.32 908.705 432.45 911.105 431.91C913.505 431.37 916.115 431.1 918.935 431.1C919.775 431.1 920.645 431.16 921.545 431.28C922.505 431.34 923.405 431.46 924.245 431.64C925.145 431.76 925.895 431.91 926.495 432.09C927.155 432.21 927.605 432.33 927.845 432.45V429.57C927.845 427.95 927.725 426.39 927.485 424.89C927.245 423.33 926.705 421.95 925.865 420.75C925.085 419.49 923.945 418.5 922.445 417.78C921.005 417 919.085 416.61 916.685 416.61C913.265 416.61 910.715 416.85 909.035 417.33C907.355 417.81 906.125 418.2 905.345 418.5L904.535 413.37C905.555 412.89 907.115 412.44 909.215 412.02C911.375 411.6 913.955 411.39 916.955 411.39ZM954.466 450.63C955.006 451.05 955.666 451.5 956.446 451.98C957.286 452.46 958.246 452.91 959.326 453.33C960.406 453.75 961.576 454.11 962.836 454.41C964.096 454.65 965.416 454.77 966.796 454.77C969.676 454.77 972.076 454.29 973.996 453.33C975.976 452.31 977.566 450.96 978.766 449.28C979.966 447.54 980.836 445.53 981.376 443.25C981.916 440.91 982.186 438.45 982.186 435.87C982.186 429.75 980.656 425.07 977.596 421.83C974.536 418.53 970.486 416.88 965.446 416.88C962.566 416.88 960.226 417.03 958.426 417.33C956.686 417.57 955.366 417.84 954.466 418.14V450.63ZM954.466 475.65H948.616V414.09C950.356 413.49 952.576 412.92 955.276 412.38C957.976 411.84 961.396 411.57 965.536 411.57C968.956 411.57 972.046 412.14 974.806 413.28C977.626 414.36 980.026 415.95 982.006 418.05C984.046 420.15 985.606 422.7 986.686 425.7C987.826 428.7 988.396 432.09 988.396 435.87C988.396 439.41 987.916 442.68 986.956 445.68C986.056 448.62 984.706 451.17 982.906 453.33C981.106 455.43 978.886 457.08 976.246 458.28C973.666 459.48 970.696 460.08 967.336 460.08C964.276 460.08 961.606 459.66 959.326 458.82C957.106 457.92 955.486 457.08 954.466 456.3V475.65ZM1032.77 419.94C1030.97 422.1 1028.87 424.83 1026.47 428.13C1024.13 431.43 1021.73 434.91 1019.27 438.57C1016.87 442.23 1014.56 445.86 1012.34 449.46C1010.12 453.06 1008.2 456.24 1006.58 459H1001.09V412.47H1006.85V449.73C1008.29 447.15 1010.06 444.18 1012.16 440.82C1014.32 437.4 1016.6 433.98 1019 430.56C1021.4 427.08 1023.8 423.75 1026.2 420.57C1028.66 417.39 1030.94 414.69 1033.04 412.47H1038.53V459H1032.77V419.94ZM1073.26 459.99C1069.66 459.99 1066.48 459.42 1063.72 458.28C1060.96 457.14 1058.65 455.52 1056.79 453.42C1054.99 451.26 1053.61 448.71 1052.65 445.77C1051.69 442.77 1051.21 439.47 1051.21 435.87C1051.21 432.21 1051.69 428.88 1052.65 425.88C1053.67 422.88 1055.11 420.3 1056.97 418.14C1058.83 415.98 1061.08 414.33 1063.72 413.19C1066.36 411.99 1069.33 411.39 1072.63 411.39C1075.15 411.39 1077.49 411.6 1079.65 412.02C1081.87 412.44 1083.58 412.98 1084.78 413.64L1083.25 418.68C1082.05 418.08 1080.7 417.6 1079.2 417.24C1077.7 416.88 1075.69 416.7 1073.17 416.7C1068.01 416.7 1064.08 418.38 1061.38 421.74C1058.74 425.04 1057.42 429.75 1057.42 435.87C1057.42 438.63 1057.72 441.18 1058.32 443.52C1058.92 445.8 1059.88 447.78 1061.2 449.46C1062.58 451.08 1064.32 452.37 1066.42 453.33C1068.58 454.23 1071.19 454.68 1074.25 454.68C1076.77 454.68 1078.87 454.41 1080.55 453.87C1082.29 453.27 1083.55 452.76 1084.33 452.34L1085.59 457.38C1084.51 457.98 1082.8 458.55 1080.46 459.09C1078.18 459.69 1075.78 459.99 1073.26 459.99ZM1109.05 459.99C1107.07 456.33 1105.15 452.52 1103.29 448.56C1101.49 444.6 1099.78 440.61 1098.16 436.59C1096.6 432.51 1095.16 428.46 1093.84 424.44C1092.52 420.36 1091.38 416.37 1090.42 412.47H1096.63C1097.29 415.35 1098.13 418.47 1099.15 421.83C1100.17 425.13 1101.31 428.55 1102.57 432.09C1103.89 435.63 1105.33 439.26 1106.89 442.98C1108.45 446.7 1110.13 450.36 1111.93 453.96C1113.25 450.24 1114.42 446.73 1115.44 443.43C1116.46 440.13 1117.39 436.86 1118.23 433.62C1119.13 430.32 1119.97 426.96 1120.75 423.54C1121.59 420.12 1122.46 416.43 1123.36 412.47H1129.21C1127.29 421.17 1125.1 429.63 1122.64 437.85C1120.18 446.07 1117.51 453.6 1114.63 460.44C1113.49 463.14 1112.32 465.45 1111.12 467.37C1109.92 469.35 1108.57 470.97 1107.07 472.23C1105.63 473.49 1103.92 474.42 1101.94 475.02C1100.02 475.62 1097.74 475.92 1095.1 475.92C1093.6 475.92 1092.22 475.74 1090.96 475.38C1089.76 475.02 1089.01 474.75 1088.71 474.57L1089.88 469.71C1090.12 469.89 1090.78 470.13 1091.86 470.43C1093 470.79 1094.17 470.97 1095.37 470.97C1097.05 470.97 1098.55 470.79 1099.87 470.43C1101.25 470.07 1102.48 469.44 1103.56 468.54C1104.64 467.7 1105.6 466.59 1106.44 465.21C1107.34 463.83 1108.21 462.09 1109.05 459.99ZM1136.2 435.69C1136.2 431.61 1136.77 428.07 1137.91 425.07C1139.11 422.01 1140.64 419.46 1142.5 417.42C1144.42 415.38 1146.58 413.88 1148.98 412.92C1151.44 411.9 1153.96 411.39 1156.54 411.39C1162.24 411.39 1166.77 413.25 1170.13 416.97C1173.55 420.69 1175.26 426.42 1175.26 434.16C1175.26 434.64 1175.23 435.12 1175.17 435.6C1175.17 436.08 1175.14 436.53 1175.08 436.95H1142.41C1142.59 442.65 1144 447.03 1146.64 450.09C1149.28 453.15 1153.48 454.68 1159.24 454.68C1162.42 454.68 1164.94 454.38 1166.8 453.78C1168.66 453.18 1170.01 452.67 1170.85 452.25L1171.93 457.29C1171.09 457.77 1169.5 458.34 1167.16 459C1164.88 459.66 1162.18 459.99 1159.06 459.99C1154.98 459.99 1151.5 459.39 1148.62 458.19C1145.74 456.99 1143.37 455.31 1141.51 453.15C1139.65 450.99 1138.3 448.44 1137.46 445.5C1136.62 442.5 1136.2 439.23 1136.2 435.69ZM1169.23 432C1169.11 427.14 1167.97 423.36 1165.81 420.66C1163.65 417.96 1160.59 416.61 1156.63 416.61C1154.53 416.61 1152.64 417.03 1150.96 417.87C1149.34 418.71 1147.9 419.85 1146.64 421.29C1145.44 422.67 1144.48 424.29 1143.76 426.15C1143.1 428.01 1142.71 429.96 1142.59 432H1169.23ZM1210.34 452.52C1209.98 451.62 1209.44 450.39 1208.72 448.83C1208 447.21 1207.19 445.44 1206.29 443.52C1205.45 441.54 1204.52 439.47 1203.5 437.31C1202.48 435.09 1201.46 432.96 1200.44 430.92C1199.48 428.88 1198.55 426.96 1197.65 425.16C1196.75 423.36 1195.97 421.89 1195.31 420.75C1194.53 427.65 1193.96 434.22 1193.6 440.46C1193.24 446.64 1192.94 452.82 1192.7 459H1187.21C1187.45 451.26 1187.84 443.46 1188.38 435.6C1188.98 427.74 1189.73 420.03 1190.63 412.47H1196.66C1197.44 413.73 1198.43 415.53 1199.63 417.87C1200.89 420.21 1202.24 422.88 1203.68 425.88C1205.18 428.82 1206.71 432.03 1208.27 435.51C1209.89 438.93 1211.51 442.41 1213.13 445.95C1214.75 442.41 1216.34 438.93 1217.9 435.51C1219.52 432.03 1221.05 428.82 1222.49 425.88C1223.99 422.88 1225.34 420.21 1226.54 417.87C1227.74 415.53 1228.76 413.73 1229.6 412.47H1235.54C1236.44 420.03 1237.16 427.74 1237.7 435.6C1238.3 443.46 1238.72 451.26 1238.96 459H1233.38C1233.14 452.82 1232.84 446.64 1232.48 440.46C1232.12 434.22 1231.55 427.65 1230.77 420.75C1230.11 421.95 1229.33 423.45 1228.43 425.25C1227.53 426.99 1226.57 428.88 1225.55 430.92C1224.59 432.96 1223.6 435.09 1222.58 437.31C1221.56 439.47 1220.6 441.54 1219.7 443.52C1218.86 445.44 1218.08 447.21 1217.36 448.83C1216.64 450.39 1216.1 451.62 1215.74 452.52H1210.34Z" fill="white"/>
<defs>
<linearGradient id="paint0_linear_5260_10640" x1="262.451" y1="53.1924" x2="388.677" y2="994.589" gradientUnits="userSpaceOnUse">
<stop stop-color="#284ACA"/>
<stop offset="1" stop-color="#050A1B"/>
</linearGradient>
<linearGradient id="paint1_linear_5260_10640" x1="0" y1="0" x2="770" y2="845" gradientUnits="userSpaceOnUse">
<stop stop-color="#5673D8"/>
<stop offset="1" stop-color="#9AB1E8"/>
</linearGradient>
</defs>
</svg>
