<svg width="80" height="80" viewBox="0 0 80 80" fill="none" xmlns="http://www.w3.org/2000/svg">
<path fill-rule="evenodd" clip-rule="evenodd" d="M39.2987 80C37.6871 80 36.1011 79.906 34.5455 79.723C29.2678 79.1044 24.2016 77.458 19.6853 74.872C19.59 74.817 19.5041 74.752 19.428 74.6792C15.6618 72.4749 12.3081 69.6521 9.49127 66.3374C9.42002 66.2811 9.35358 66.2166 9.29333 66.144C7.2944 63.7483 5.59491 61.1185 4.21753 58.318C1.51399 52.8582 0 46.6421 0 40C0 33.358 1.51392 27.1421 4.21734 21.6824C5.59475 18.8818 7.29431 16.2518 9.29333 13.856C9.35359 13.7834 9.42003 13.7189 9.49129 13.6625C12.3081 10.3479 15.6618 7.52514 19.4279 5.32086C19.504 5.248 19.59 5.18302 19.6853 5.128C24.2017 2.54195 29.2679 0.895623 34.5456 0.276967C36.1012 0.09398 37.6872 0 39.2987 0C39.4447 0 39.5905 0.000759423 39.7361 0.00227446C50.1952 -0.0630161 60.0297 3.82232 67.6133 11.0613C75.5017 18.589 79.8883 28.7036 79.9978 39.5824C79.9993 39.7214 80 39.8606 80 40C80 62.056 61.7413 80 39.2987 80ZM49.0132 76.0996C45.9111 76.9045 42.655 77.3333 39.2987 77.3333C38.4609 77.3333 37.6304 77.3061 36.8082 77.2523C34.7454 77.1174 32.7341 76.816 30.7869 76.3605C31.39 75.6399 31.7291 74.7218 31.7252 73.7653L31.6959 67.9786C31.6932 67.5786 31.5092 67.1973 31.1946 66.9466C30.8799 66.6933 30.4719 66.6026 30.0772 66.6853C20.7306 68.7199 18.6906 62.6506 18.5759 62.2959C17.0986 58.5279 15.0959 56.8373 14.2266 56.2559C16.6582 56.9571 18.0265 59.3306 18.0763 59.417L18.0772 59.4186C22.1892 66.4853 29.0319 64.0879 31.0319 63.1866C31.4506 62.9999 31.7439 62.6106 31.8052 62.1573C32.1652 59.5759 33.2239 58.3093 33.8212 57.7839C34.2159 57.4373 34.3706 56.8853 34.2132 56.3839C34.0559 55.8799 33.6159 55.5173 33.0932 55.4586C24.9679 54.5333 16.6612 51.6853 16.6612 37.5999C16.6612 33.9253 17.8826 30.7226 20.2932 28.0799C20.6399 27.7013 20.7359 27.1573 20.5439 26.6799C20.1759 25.7706 19.1466 22.5866 20.6479 18.1573C21.8106 18.1866 24.6906 18.6719 29.5706 21.9919C29.8986 22.2133 30.3039 22.2853 30.6799 22.1733C33.6106 21.3546 36.7492 20.9306 39.9972 20.9146C43.2132 20.9333 46.4372 21.3679 49.3279 22.1733C49.7066 22.2826 50.1119 22.2133 50.4372 21.9919C55.3359 18.6559 58.2159 18.1839 59.3439 18.1519C60.8532 22.5813 59.8266 25.7733 59.4559 26.6799C59.2612 27.1573 59.3599 27.7013 59.7066 28.0826C62.1119 30.7146 63.3333 33.9199 63.3333 37.5999C63.3333 51.6933 55.0079 54.5226 46.8639 55.4293C46.3386 55.4879 45.8959 55.8533 45.7386 56.3599C45.5812 56.8639 45.7412 57.4159 46.1412 57.7626C46.7919 58.3226 48.3039 60.0506 48.3039 63.9413C48.3039 66.6399 48.2906 70.5066 48.2772 73.7759C48.2738 74.6174 48.538 75.4278 49.0132 76.0996ZM77.3312 39.5989C77.3326 39.7325 77.3333 39.8661 77.3333 39.9999C77.3333 55.6213 67.0799 69.6426 52.3733 74.9866C51.9546 75.1359 51.8772 75.1413 51.5119 74.8853C51.1466 74.6266 50.9412 74.2293 50.9412 73.7866C50.9546 70.5146 50.9679 66.6426 50.9679 63.9413C50.9679 61.5573 50.4479 59.4159 49.5039 57.7546C57.1759 56.4719 65.9972 52.5173 65.9972 37.5973C65.9972 33.5066 64.7226 29.9093 62.2052 26.8879C62.7626 25.0853 63.4533 21.2506 61.5466 16.4159C61.3999 16.0453 61.0959 15.7599 60.7146 15.6373C60.3252 15.5119 56.7946 14.5866 49.4452 19.4399C46.4586 18.6639 43.2879 18.2613 39.9972 18.2453C36.7172 18.2613 33.5439 18.6639 30.5599 19.4399C23.2079 14.5866 19.6639 15.5119 19.2799 15.6373C18.8986 15.7599 18.5919 16.0452 18.4452 16.4186C16.5466 21.2533 17.2399 25.0879 17.7946 26.8853C15.2746 29.9146 13.9972 33.5119 13.9972 37.5946C13.9972 52.5146 22.8079 56.4799 30.4666 57.7759C29.9332 58.7173 29.5359 59.8133 29.2959 61.0186C26.8399 61.9573 22.9519 62.4826 20.4026 58.1013C20.3066 57.9226 17.9599 53.7333 13.3306 53.4079C12.5732 53.4319 10.7466 53.5253 10.3012 54.9333C9.80525 56.4959 11.5492 57.6879 12.4612 58.2986C12.4826 58.3093 14.5892 59.4159 16.0612 63.1626L16.0616 63.1636C16.1038 63.295 18.6012 71.0698 29.0399 69.5786V74.1332C29.0426 74.5786 28.8319 74.9839 28.4612 75.2452C28.2313 75.4088 27.9665 75.4929 27.7003 75.4934C26.2022 74.9999 24.7493 74.4126 23.3479 73.7378C10.2029 67.1773 2.05163 53.2769 2.70391 38.3279C2.70505 38.3019 2.70542 38.2761 2.70506 38.2504C2.89633 33.8978 3.79937 29.6579 5.35024 25.7114C10.5001 12.6943 22.5627 3.54504 37.1577 2.72647C37.4015 2.71282 37.6457 2.7015 37.8901 2.69252C37.9935 2.71149 38.1008 2.71763 38.2106 2.70925C38.6929 2.68659 39.174 2.67295 39.6537 2.66827C60.3281 2.85475 77.1126 19.3123 77.3312 39.5989Z" fill="#27292F"/>
</svg>
